
<svg>
    <symbol id="user" viewbox="0 0 22 28" xmlns="http://www.w3.org/2000/svg">
        <path d="M10.5941 15.3117C10.6201 15.3117 10.6461 15.3117 10.6773 15.3117C10.6877 15.3117 10.6981 15.3117 10.7085 15.3117C10.7242 15.3117 10.745 15.3117 10.7606 15.3117C12.2849 15.2831 13.5179 14.6931 14.4283 13.5646C16.4313 11.0784 16.0983 6.81654 16.0619 6.40983C15.9319 3.35661 14.6208 1.89587 13.5387 1.21419C12.7323 0.704369 11.7907 0.429408 10.7398 0.406494H10.7033C10.6981 0.406494 10.6877 0.406494 10.6825 0.406494H10.6513C10.0738 0.406494 8.9397 0.509605 7.85237 1.19128C6.75985 1.87296 5.42801 3.33369 5.29795 6.40983C5.26153 6.81654 4.92857 11.0784 6.93153 13.5646C7.83677 14.6931 9.06976 15.2831 10.5941 15.3117ZM6.68701 6.55304C6.68701 6.53585 6.69222 6.51867 6.69222 6.50721C6.8639 2.39997 9.51197 1.95888 10.6461 1.95888H10.6669C10.6773 1.95888 10.6929 1.95888 10.7085 1.95888C12.1132 1.99325 14.5012 2.62337 14.6624 6.50721C14.6624 6.52439 14.6624 6.54158 14.6676 6.55304C14.6728 6.59313 15.037 10.4884 13.3826 12.5392C12.7271 13.3526 11.8531 13.7536 10.7033 13.7651C10.6929 13.7651 10.6877 13.7651 10.6773 13.7651C10.6669 13.7651 10.6617 13.7651 10.6513 13.7651C9.50677 13.7536 8.62755 13.3526 7.97723 12.5392C6.32804 10.4999 6.68181 6.58741 6.68701 6.55304Z"/>
        <path d="M21.3682 22.3805C21.3682 22.3748 21.3682 22.3691 21.3682 22.3633C21.3682 22.3175 21.363 22.2717 21.363 22.2201C21.3318 21.0859 21.2641 18.4337 19.0062 17.5859C18.9906 17.5801 18.9698 17.5744 18.9542 17.5687C16.6079 16.9099 14.6569 15.4206 14.6361 15.4034C14.3188 15.157 13.8817 15.243 13.658 15.5924C13.4343 15.9418 13.5124 16.423 13.8297 16.6693C13.9182 16.7381 15.9888 18.3248 18.5796 19.0581C19.7918 19.5335 19.9271 20.9599 19.9635 22.266C19.9635 22.3175 19.9635 22.3633 19.9687 22.4092C19.9739 22.9247 19.9427 23.721 19.8594 24.1792C19.0166 24.7062 15.713 26.5279 10.6874 26.5279C5.68257 26.5279 2.35816 24.7005 1.51015 24.1735C1.42691 23.7152 1.39049 22.919 1.40089 22.4034C1.40089 22.3576 1.4061 22.3118 1.4061 22.2602C1.44251 20.9542 1.57778 19.5278 2.78997 19.0523C5.38082 18.3191 7.45143 16.7266 7.53987 16.6636C7.85722 16.4173 7.93526 15.9361 7.71155 15.5867C7.48784 15.2372 7.05083 15.1513 6.73348 15.3976C6.71267 15.4148 4.77213 16.9042 2.41539 17.563C2.39458 17.5687 2.37897 17.5744 2.36336 17.5801C0.105466 18.4337 0.0378337 21.0859 0.00661858 22.2144C0.00661858 22.266 0.00661846 22.3118 0.00141594 22.3576C0.00141594 22.3633 0.00141594 22.3691 0.00141594 22.3748C-0.00378658 22.6727 -0.00898899 24.2021 0.266745 24.9697C0.31877 25.1187 0.412415 25.2447 0.537276 25.3306C0.693352 25.4452 4.43396 28.0688 10.6926 28.0688C16.9512 28.0688 20.6918 25.4395 20.8479 25.3306C20.9676 25.2447 21.0664 25.1187 21.1185 24.9697C21.3786 24.2079 21.3734 22.6784 21.3682 22.3805Z"/>
    </symbol>
    <symbol id="tel" viewBox="0 0 23 24" xmlns="http://www.w3.org/2000/svg">
        <path d="M22.1494 17.7016L19.3231 14.718C18.5439 13.8955 17.276 13.8955 16.4969 14.718L15.2122 16.0742C14.6219 16.6973 13.6614 16.6971 13.0713 16.0744L7.50303 10.1912C6.91135 9.56663 6.91126 8.55568 7.50303 7.93097C7.70995 7.71254 8.30412 7.0853 8.78768 6.57483C9.56346 5.75593 9.5743 4.42163 8.78693 3.59053L5.96142 0.617157C5.18222 -0.205359 3.91435 -0.205359 3.13724 0.615001C2.55573 1.22353 2.36817 1.41984 2.10743 1.6927C-0.702453 4.65891 -0.702453 9.4853 2.10729 12.4514L10.93 21.77C13.7464 24.7432 18.3049 24.7435 21.1216 21.77L22.1494 20.6851C22.9286 19.8625 22.9286 18.5241 22.1494 17.7016ZM4.07727 1.61166C4.33699 1.33749 4.75954 1.33744 5.0201 1.61241L7.84561 4.58578C8.10595 4.86061 8.10595 5.30541 7.84561 5.58029L7.37453 6.07754L3.60863 2.10206L4.07727 1.61166ZM11.8722 20.7756L3.0495 11.457C0.875572 9.16205 0.756082 5.55854 2.68201 3.11292L6.43698 7.07686C5.45033 8.2576 5.49145 10.0568 6.56074 11.1856L12.1288 17.0685C12.1288 17.0685 12.1289 17.0686 12.129 17.0687C13.1971 18.1963 14.9014 18.2425 16.0212 17.1995L19.7763 21.1636C17.467 23.1932 14.0611 23.0863 11.8722 20.7756ZM21.2074 19.6906L20.7363 20.1879L16.9679 16.2098L17.4389 15.7125C17.6987 15.4383 18.1213 15.4383 18.3811 15.7125L21.2073 18.6961C21.4671 18.9703 21.4671 19.4164 21.2074 19.6906Z"/>
    </symbol>
    <symbol id="favourites" viewBox="0 0 28 27" xmlns="http://www.w3.org/2000/svg">
        <path d="M20.1004 0C17.7169 0 15.4856 1.07339 14 2.87184C12.5144 1.07333 10.2832 0 7.89957 0C3.54375 0 0 3.52462 0 7.85705C0 11.2495 2.03385 15.1734 6.04492 19.5198C9.13175 22.8646 12.4897 25.4544 13.4454 26.1685L13.9998 26.5828L14.5543 26.1686C15.5099 25.4545 18.868 22.8647 21.9549 19.52C25.9661 15.1736 28 11.2496 28 7.85705C28 3.52462 24.4562 0 20.1004 0ZM20.5948 18.2782C18.0558 21.0293 15.3242 23.2533 13.9998 24.2783C12.6755 23.2533 9.944 21.0293 7.40498 18.2781C3.76837 14.3375 1.84615 10.734 1.84615 7.85705C1.84615 4.53717 4.56172 1.83622 7.89957 1.83622C10.0961 1.83622 12.1243 3.02694 13.1927 4.94377L14 6.3923L14.8073 4.94377C15.8756 3.027 17.9038 1.83622 20.1004 1.83622C23.4383 1.83622 26.1538 4.53711 26.1538 7.85705C26.1538 10.7341 24.2316 14.3377 20.5948 18.2782Z"/>
    </symbol>
    <symbol id="cart" viewBox="0 0 28 30" xmlns="http://www.w3.org/2000/svg">
        <path fill-rule="evenodd" clip-rule="evenodd" d="M3.83163 2.24957H0V0.749573H3.83163C5.18354 0.749573 6.33495 1.73221 6.54744 3.06732L7.04761 6.20988H25.7121C26.8545 6.20988 27.6906 7.28665 27.4076 8.39341L25.8676 14.416C25.4432 16.0759 23.9478 17.237 22.2345 17.237H8.80269L9.10803 19.1554C9.20462 19.7623 9.72798 20.209 10.3425 20.209H24.5639V21.709H10.3425C8.99057 21.709 7.83917 20.7263 7.62667 19.3912L5.06609 3.3031C4.9695 2.69623 4.44613 2.24957 3.83163 2.24957ZM8.56395 15.737H22.2345C23.2625 15.737 24.1597 15.0403 24.4144 14.0444L25.9543 8.02182C25.9948 7.86371 25.8753 7.70988 25.7121 7.70988H7.28635L8.56395 15.737Z"/>
        <path fill-rule="evenodd" clip-rule="evenodd" d="M11.8188 27.7192C12.3575 27.7192 12.8877 27.25 12.8877 26.5538C12.8877 25.8576 12.3575 25.3885 11.8188 25.3885C11.2802 25.3885 10.75 25.8576 10.75 26.5538C10.75 27.25 11.2802 27.7192 11.8188 27.7192ZM11.8188 29.2192C13.2376 29.2192 14.3877 28.0258 14.3877 26.5538C14.3877 25.0818 13.2376 23.8885 11.8188 23.8885C10.4001 23.8885 9.25 25.0818 9.25 26.5538C9.25 28.0258 10.4001 29.2192 11.8188 29.2192Z"/>
        <path fill-rule="evenodd" clip-rule="evenodd" d="M23.1211 27.7192C23.6597 27.7192 24.1899 27.25 24.1899 26.5538C24.1899 25.8576 23.6597 25.3885 23.1211 25.3885C22.5824 25.3885 22.0522 25.8576 22.0522 26.5538C22.0522 27.25 22.5824 27.7192 23.1211 27.7192ZM23.1211 29.2192C24.5398 29.2192 25.6899 28.0258 25.6899 26.5538C25.6899 25.0818 24.5398 23.8885 23.1211 23.8885C21.7024 23.8885 20.5522 25.0818 20.5522 26.5538C20.5522 28.0258 21.7024 29.2192 23.1211 29.2192Z"/>
    </symbol>
    <symbol id="cart-2" viewBox="0 0 21 19" xmlns="http://www.w3.org/2000/svg">
            <path fill-rule="evenodd" clip-rule="evenodd" d="M3.09564 1.75H0.854248V0.25H3.09564C4.42699 0.25 5.56713 1.20369 5.80237 2.51409L6.01014 3.67146H18.6074C19.7718 3.67146 20.6115 4.78753 20.2888 5.9064L19.5609 8.43038C19.0979 10.0358 17.6286 11.1412 15.9578 11.1412H7.35109L7.4001 11.4142C7.50702 12.0099 8.02527 12.4434 8.63043 12.4434H18.2148V13.9434H8.63043C7.29908 13.9434 6.15894 12.9897 5.9237 11.6793L4.32597 2.77913C4.21904 2.1835 3.7008 1.75 3.09564 1.75ZM7.08181 9.64122H15.9578C16.9603 9.64122 17.8418 8.97797 18.1196 8.01472L18.8476 5.49074C18.8937 5.3309 18.7737 5.17146 18.6074 5.17146H6.27941L7.08181 9.64122Z"/>
            <path fill-rule="evenodd" clip-rule="evenodd" d="M9.52241 16.6994C9.52241 16.6993 9.52241 16.6992 9.52241 16.6992C9.52241 16.6991 9.52241 16.699 9.52241 16.6989C9.52243 16.6937 9.52255 16.6658 9.47513 16.6222C9.42469 16.5758 9.33372 16.5291 9.20688 16.5291C9.08004 16.5291 8.98907 16.5758 8.93864 16.6222C8.89122 16.6658 8.89134 16.6937 8.89136 16.6989C8.89136 16.699 8.89136 16.6991 8.89136 16.6992C8.89136 16.6992 8.89136 16.6993 8.89136 16.6994C8.89134 16.7046 8.89122 16.7325 8.93864 16.7762C8.98907 16.8226 9.08004 16.8693 9.20688 16.8693C9.33372 16.8693 9.42469 16.8226 9.47513 16.7762C9.52255 16.7325 9.52243 16.7046 9.52241 16.6994ZM9.20688 18.3693C10.2096 18.3693 11.0224 17.6215 11.0224 16.6992C11.0224 15.7768 10.2096 15.0291 9.20688 15.0291C8.2042 15.0291 7.39136 15.7768 7.39136 16.6992C7.39136 17.6215 8.2042 18.3693 9.20688 18.3693Z"/>
            <path fill-rule="evenodd" clip-rule="evenodd" d="M17.5109 16.6994C17.5109 16.6993 17.5109 16.6992 17.5109 16.6992C17.5109 16.6991 17.5109 16.699 17.5109 16.6989C17.511 16.6937 17.5111 16.6658 17.4637 16.6222C17.4132 16.5758 17.3223 16.5291 17.1954 16.5291C17.0686 16.5291 16.9776 16.5758 16.9272 16.6222C16.8797 16.6658 16.8799 16.6937 16.8799 16.6989C16.8799 16.699 16.8799 16.6991 16.8799 16.6992C16.8799 16.6992 16.8799 16.6993 16.8799 16.6994C16.8799 16.7046 16.8797 16.7325 16.9272 16.7762C16.9776 16.8226 17.0686 16.8693 17.1954 16.8693C17.3223 16.8693 17.4132 16.8226 17.4637 16.7762C17.5111 16.7325 17.511 16.7046 17.5109 16.6994ZM17.1954 18.3693C18.1981 18.3693 19.0109 17.6215 19.0109 16.6992C19.0109 15.7768 18.1981 15.0291 17.1954 15.0291C16.1927 15.0291 15.3799 15.7768 15.3799 16.6992C15.3799 17.6215 16.1927 18.3693 17.1954 18.3693Z"/>
    </symbol>
    <symbol id="comparison" viewBox="0 0 26 25" xmlns="http://www.w3.org/2000/svg">
        <path d="M25.9558 12.5275L25.9337 12.5386L22.2036 3.25484H23.9056C24.2108 3.25484 24.4582 3.00741 24.4582 2.70223C24.4582 2.39706 24.2108 2.14963 23.9056 2.14963H13.5056V0.552604C13.5056 0.247428 13.2582 0 12.953 0C12.6479 0 12.4004 0.247428 12.4004 0.552604V2.1441H2.00595C1.70078 2.1441 1.45335 2.39153 1.45335 2.69671C1.45335 3.00188 1.70078 3.24931 2.00595 3.24931H3.77981L0.0442083 12.5275C0.0165781 12.5922 0.00158874 12.6617 0 12.732C0 15.2697 2.0572 17.3269 4.5949 17.3269C7.13259 17.3269 9.1898 15.2697 9.1898 12.732C9.18821 12.6617 9.17322 12.5922 9.14559 12.5275L5.41552 3.24378H12.4004V20.3303C9.76451 20.5292 7.70329 22.1318 7.70329 24.0714C7.70329 24.3766 7.95072 24.624 8.2559 24.624H17.6502C17.9553 24.624 18.2028 24.3766 18.2028 24.0714C18.2028 22.1318 16.1416 20.5292 13.5056 20.3303V3.24378H20.5624L16.8544 12.5275C16.8268 12.5922 16.8118 12.6617 16.8102 12.732C16.8102 15.2697 18.8674 17.3269 21.4051 17.3269C23.9428 17.3269 26 15.2697 26 12.732C25.9984 12.6617 25.9834 12.5922 25.9558 12.5275ZM4.59214 16.23C2.88058 16.2276 1.42295 14.9852 1.14942 13.2956H8.01275C7.74059 14.977 6.29533 16.2168 4.59214 16.23ZM7.81382 12.1904H1.38151L4.60319 4.17216L7.81382 12.1904ZM16.9981 23.5188H8.90244C9.31137 22.3307 10.9968 21.4134 12.9475 21.4134C14.8982 21.4134 16.5892 22.3307 16.9981 23.5188ZM21.3802 4.17768L24.5909 12.1904H18.1586L21.3802 4.17768ZM21.3802 16.23V16.2355C19.6752 16.2219 18.2294 14.9792 17.9596 13.2956H24.823C24.5494 14.9852 23.0918 16.2276 21.3802 16.23Z"/>
    </symbol>

</svg>