<svg width="21" height="19" viewBox="0 0 21 19" fill="none" xmlns="http://www.w3.org/2000/svg">
<path fill-rule="evenodd" clip-rule="evenodd" d="M3.09564 1.75H0.854248V0.25H3.09564C4.42699 0.25 5.56713 1.20369 5.80237 2.51409L6.01014 3.67146H18.6074C19.7718 3.67146 20.6115 4.78753 20.2888 5.9064L19.5609 8.43038C19.0979 10.0358 17.6286 11.1412 15.9578 11.1412H7.35109L7.4001 11.4142C7.50702 12.0099 8.02527 12.4434 8.63043 12.4434H18.2148V13.9434H8.63043C7.29908 13.9434 6.15894 12.9897 5.9237 11.6793L4.32597 2.77913C4.21904 2.1835 3.7008 1.75 3.09564 1.75ZM7.08181 9.64122H15.9578C16.9603 9.64122 17.8418 8.97797 18.1196 8.01472L18.8476 5.49074C18.8937 5.3309 18.7737 5.17146 18.6074 5.17146H6.27941L7.08181 9.64122Z" fill="white"/>
<path fill-rule="evenodd" clip-rule="evenodd" d="M9.52241 16.6994C9.52241 16.6993 9.52241 16.6992 9.52241 16.6992C9.52241 16.6991 9.52241 16.699 9.52241 16.6989C9.52243 16.6937 9.52255 16.6658 9.47513 16.6222C9.42469 16.5758 9.33372 16.5291 9.20688 16.5291C9.08004 16.5291 8.98907 16.5758 8.93864 16.6222C8.89122 16.6658 8.89134 16.6937 8.89136 16.6989C8.89136 16.699 8.89136 16.6991 8.89136 16.6992C8.89136 16.6992 8.89136 16.6993 8.89136 16.6994C8.89134 16.7046 8.89122 16.7325 8.93864 16.7762C8.98907 16.8226 9.08004 16.8693 9.20688 16.8693C9.33372 16.8693 9.42469 16.8226 9.47513 16.7762C9.52255 16.7325 9.52243 16.7046 9.52241 16.6994ZM9.20688 18.3693C10.2096 18.3693 11.0224 17.6215 11.0224 16.6992C11.0224 15.7768 10.2096 15.0291 9.20688 15.0291C8.2042 15.0291 7.39136 15.7768 7.39136 16.6992C7.39136 17.6215 8.2042 18.3693 9.20688 18.3693Z" fill="white"/>
<path fill-rule="evenodd" clip-rule="evenodd" d="M17.5109 16.6994C17.5109 16.6993 17.5109 16.6992 17.5109 16.6992C17.5109 16.6991 17.5109 16.699 17.5109 16.6989C17.511 16.6937 17.5111 16.6658 17.4637 16.6222C17.4132 16.5758 17.3223 16.5291 17.1954 16.5291C17.0686 16.5291 16.9776 16.5758 16.9272 16.6222C16.8797 16.6658 16.8799 16.6937 16.8799 16.6989C16.8799 16.699 16.8799 16.6991 16.8799 16.6992C16.8799 16.6992 16.8799 16.6993 16.8799 16.6994C16.8799 16.7046 16.8797 16.7325 16.9272 16.7762C16.9776 16.8226 17.0686 16.8693 17.1954 16.8693C17.3223 16.8693 17.4132 16.8226 17.4637 16.7762C17.5111 16.7325 17.511 16.7046 17.5109 16.6994ZM17.1954 18.3693C18.1981 18.3693 19.0109 17.6215 19.0109 16.6992C19.0109 15.7768 18.1981 15.0291 17.1954 15.0291C16.1927 15.0291 15.3799 15.7768 15.3799 16.6992C15.3799 17.6215 16.1927 18.3693 17.1954 18.3693Z" fill="white"/>
</svg>
